<?xml version="1.0" encoding="iso-8859-1"?>
<!-- Uploaded to: SVG Repo, www.svgrepo.com, Generator: SVG Repo Mixer Tools -->
<svg version="1.1" id="Layer_1" xmlns="http://www.w3.org/2000/svg" xmlns:xlink="http://www.w3.org/1999/xlink" 
	 viewBox="0 0 509 509" xml:space="preserve">
<circle style="fill:#6EB1E1;" cx="254.5" cy="254.5" r="254.5"/>
<rect x="119.5" y="49.3" style="fill:#F1F3F7;" width="270" height="253.8"/>
<g>
	<path style="fill:#646B79;" d="M108,194.9c0-0.3-1.9-30,31.1-39.3l1.5,5.5c-28.4,8-27,32.3-26.9,33.4L108,194.9z"/>
	<path style="fill:#646B79;" d="M110.8,190.4c-6.1,0-11,4.9-11,11v34.1c0,6.1,4.9,11,11,11s11-4.9,11-11v-34.1
		C121.8,195.3,116.9,190.4,110.8,190.4z"/>
	<path style="fill:#646B79;" d="M401,194.9c0-0.3,1.9-30-31.1-39.3l-1.5,5.5c28.4,8,27,32.3,26.9,33.4L401,194.9z"/>
	<path style="fill:#646B79;" d="M398.2,190.4c6.1,0,11,4.9,11,11v34.1c0,6.1-4.9,11-11,11s-11-4.9-11-11v-34.1
		C387.2,195.3,392.1,190.4,398.2,190.4z"/>
</g>
<path style="fill:#D54232;" d="M366.9,103.4c-1.5-13.5-13-23.7-26.5-23.7H168.6c-13.6,0-25,10.2-26.5,23.7l-8.2,71.5h241.2
	L366.9,103.4z"/>
<path style="fill:#F0582F;" d="M376.1,180.8c-0.7-11.4-10-20.6-20.8-20.6H153.6c-10.8,0-20.1,9.2-20.8,20.6l-7.5,118.6h258.2
	L376.1,180.8z"/>
<path style="fill:#4F5565;" d="M350.1,181.4H158.9c-7.8,0-14.1,7.1-14.1,16v49.1h219.4v-49.1C364.2,188.6,357.9,181.4,350.1,181.4z"
	/>
<path style="fill:#E24723;" d="M350,239H159c-13.7,0-24.9,11-24.9,24.5V293h240.7v-29.5C374.9,249.9,363.7,239,350,239z"/>
<path style="fill:#D54232;" d="M398.9,350.4H110.1c-5.4,0-9.7,4.2-9.7,9.3v44.4c0,5.2,4.3,9.3,9.7,9.3h288.7c5.4,0,9.7-4.2,9.7-9.3
	v-44.4C408.6,354.6,404.2,350.4,398.9,350.4z"/>
<path style="fill:#DEDEDF;" d="M318.7,268H190.3c-10.2,0-18.4,8.4-18.4,18.7v63.8h165.2v-63.8C337.1,276.3,328.9,268,318.7,268z"/>
<g>
	<path style="fill:#646B79;" d="M195,279.9c-2.2,0-4,1.8-4,4.1v56.2c0,2.2,1.8,4.1,4,4.1s4-1.8,4-4.1V284
		C199,281.7,197.2,279.9,195,279.9z"/>
	<path style="fill:#646B79;" d="M214.8,279.9c-2.2,0-4,1.8-4,4.1v56.2c0,2.2,1.8,4.1,4,4.1s4-1.8,4-4.1V284
		C218.8,281.7,217.1,279.9,214.8,279.9z"/>
	<path style="fill:#646B79;" d="M234.7,279.9c-2.2,0-4,1.8-4,4.1v56.2c0,2.2,1.8,4.1,4,4.1s4-1.8,4-4.1V284
		C238.7,281.7,236.9,279.9,234.7,279.9z"/>
	<path style="fill:#646B79;" d="M254.5,279.9c-2.2,0-4,1.8-4,4.1v56.2c0,2.2,1.8,4.1,4,4.1c2.2,0,4-1.8,4-4.1V284
		C258.5,281.7,256.7,279.9,254.5,279.9z"/>
	<path style="fill:#646B79;" d="M274.3,279.9c-2.2,0-4,1.8-4,4.1v56.2c0,2.2,1.8,4.1,4,4.1s4-1.8,4-4.1V284
		C278.3,281.7,276.5,279.9,274.3,279.9z"/>
	<path style="fill:#646B79;" d="M294.2,279.9c-2.2,0-4,1.8-4,4.1v56.2c0,2.2,1.8,4.1,4,4.1s4-1.8,4-4.1V284
		C298.2,281.7,296.4,279.9,294.2,279.9z"/>
	<path style="fill:#646B79;" d="M314,279.9c-2.2,0-4,1.8-4,4.1v56.2c0,2.2,1.8,4.1,4,4.1s4-1.8,4-4.1V284
		C318,281.7,316.2,279.9,314,279.9z"/>
</g>
<path style="fill:#F0582F;" d="M142.1,293c-17.7,0-32.1,14.4-32.1,32.1v25.4h61.9V293H142.1z"/>
<circle style="fill:#FFFFFC;" cx="140.4" cy="327.1" r="12.5"/>
<path style="fill:#F0582F;" d="M367.4,293c17.7,0,32.1,14.4,32.1,32.1v25.4h-61.9V293H367.4z"/>
<circle style="fill:#FFFFFC;" cx="368.6" cy="327.1" r="12.5"/>
<g>
	<path style="fill:#393D47;" d="M310.2,376.8l9.4-12.2c0.8-1.1,0.1-2.6-1.3-2.6H190.6c-1.4,0-2.1,1.6-1.3,2.6l9.4,12.2
		c0.3,0.4,0.8,0.6,1.3,0.6h108.9C309.4,377.4,309.9,377.2,310.2,376.8z"/>
	<path style="fill:#393D47;" d="M175.7,362h-20.1c-1.4,0-2.2,1.7-1.2,2.7l10.7,12.2c0.3,0.4,0.8,0.6,1.2,0.6h18.9
		c1.4,0,2.1-1.6,1.3-2.6l-9.4-12.2C176.7,362.2,176.2,362,175.7,362z"/>
	<path style="fill:#393D47;" d="M332,362.6l-9.4,12.2c-0.8,1.1-0.1,2.6,1.3,2.6h18.9c0.5,0,0.9-0.2,1.2-0.6l10.6-12.2
		c0.9-1.1,0.2-2.7-1.2-2.7h-20.1C332.8,362,332.3,362.2,332,362.6z"/>
	<path style="fill:#393D47;" d="M310.2,401.3l9.4-12.2c0.8-1.1,0.1-2.6-1.3-2.6H190.6c-1.4,0-2.1,1.6-1.3,2.6l9.4,12.2
		c0.3,0.4,0.8,0.6,1.3,0.6h108.9C309.4,401.9,309.9,401.7,310.2,401.3z"/>
	<path style="fill:#393D47;" d="M175.7,386.5h-20.1c-1.4,0-2.2,1.7-1.2,2.7l10.7,12.2c0.3,0.4,0.8,0.6,1.2,0.6h18.9
		c1.4,0,2.1-1.6,1.3-2.6l-9.4-12.2C176.7,386.7,176.2,386.5,175.7,386.5z"/>
	<path style="fill:#393D47;" d="M332,387.1l-9.4,12.2c-0.8,1.1-0.1,2.6,1.3,2.6h18.9c0.5,0,0.9-0.2,1.2-0.6l10.6-12.2
		c0.9-1.1,0.2-2.7-1.2-2.7h-20.1C332.8,386.5,332.3,386.7,332,387.1z"/>
</g>
<g>
	<path style="fill:#646B79;" d="M116.5,413.5v41.8c0,2.4,2,4.4,4.4,4.4h27.6c2.4,0,4.4-2,4.4-4.4v-41.8H116.5z"/>
	<path style="fill:#646B79;" d="M356.1,413.5v41.8c0,2.4,2,4.4,4.4,4.4h27.6c2.4,0,4.4-2,4.4-4.4v-41.8H356.1z"/>
</g>
<polygon style="fill:#333842;" points="254.5,413.5 152.9,413.5 154.1,429.4 171.1,424.5 213.2,424.5 242.2,436.6 254.5,436.6 
	266.8,436.6 295.8,424.5 337.9,424.5 354.9,429.4 356.1,413.5 "/>
</svg>